<svg width="108" height="27" viewBox="0 0 108 27" fill="none" xmlns="http://www.w3.org/2000/svg">
<path fill-rule="evenodd" clip-rule="evenodd" d="M0.000199363 19.0814L3.87749 16.1111C5.93673 18.7993 8.12346 20.0379 10.5601 20.0378C12.9832 20.0376 15.1097 18.8129 17.0763 16.1458L21.0074 19.0444C18.1719 22.8899 14.644 24.9217 10.5604 24.922C6.49035 24.9222 2.92948 22.9052 0.000199363 19.0814Z" fill="#B5AFAF"/>
<path fill-rule="evenodd" clip-rule="evenodd" d="M10.09 6.56987L3.18909 12.5171L0.000584388 8.81725L10.1033 0.110711L20.1286 8.82268L16.9249 12.5094L10.09 6.56987Z" fill="#B5AFAF"/>
<path d="M47.9074 5.15324L44 5.1535L44.0011 21.4342L47.9085 21.4339L47.9074 5.15324Z" fill="#B5AFAF"/>
<path fill-rule="evenodd" clip-rule="evenodd" d="M36.1056 21.426C33.8022 21.4261 31.8827 20.6798 30.3257 19.187C28.7687 17.6728 28.0007 15.7321 28.0006 13.3647C28.0004 10.976 28.7894 9.01375 30.3462 7.47808C31.9244 5.92103 33.8438 5.15311 36.1259 5.15296C38.941 5.15277 41.4366 6.36827 42.8869 8.26635L40.3491 10.9325C39.1332 9.63158 37.811 8.97051 36.382 8.97061C35.1664 8.97069 34.164 9.37597 33.3323 10.2078C32.5219 11.0397 32.1167 12.0847 32.1168 13.3431C32.1169 14.5587 32.5222 15.5824 33.3327 16.4142C34.1645 17.2246 35.167 17.6297 36.3613 17.6296C37.9182 17.6295 39.2831 16.947 40.4133 15.6032L43.0583 18.1411C42.3333 19.1008 41.3521 19.89 40.1364 20.5086C38.921 21.1272 37.5772 21.4259 36.1056 21.426Z" fill="#B5AFAF"/>
<path fill-rule="evenodd" clip-rule="evenodd" d="M53.233 6.2697C53.2331 7.43863 52.2859 8.38627 51.1169 8.38635C49.9479 8.38643 49.0002 7.43891 49.0001 6.26998C49.0001 5.10108 49.9476 4.15344 51.1166 4.15336C52.2856 4.15328 53.2329 5.1008 53.233 6.2697ZM53.0704 9.36303L49.1631 9.36329L49.1639 21.2482L53.0712 21.2479L53.0704 9.36303Z" fill="#B5AFAF"/>
<path fill-rule="evenodd" clip-rule="evenodd" d="M60.25 21.4805C58.3946 21.4806 56.9015 20.9048 55.7286 19.7532C54.5767 18.6016 54.0005 17.13 54.0004 15.3172C54.0003 13.5044 54.5763 12.0327 55.749 10.8809C56.9222 9.72916 58.4363 9.15321 60.3131 9.15308C62.766 9.15291 64.9199 10.3471 65.9225 12.5865L62.9154 14.1649C62.3182 13.1626 61.4866 12.6507 60.3988 12.6508C59.6097 12.6508 58.9697 12.9068 58.458 13.4187C57.9674 13.9306 57.7116 14.5705 57.7116 15.3169C57.7117 16.8739 58.8421 18.0255 60.3566 18.0254C61.444 18.0253 62.4464 17.4281 62.873 16.5109L65.8803 18.3023C64.8566 20.2645 62.7454 21.4803 60.25 21.4805Z" fill="#B5AFAF"/>
<path fill-rule="evenodd" clip-rule="evenodd" d="M70.9073 5.15324L67 5.1535L67.0011 21.4342L70.9084 21.4339L70.9081 17.2893L71.3658 16.8623L74.9379 21.4336L79.4833 21.4333L73.9951 14.41L79.2079 9.54842L74.4334 9.54874L70.9078 12.8371L70.9073 5.15324Z" fill="#B5AFAF"/>
<path fill-rule="evenodd" clip-rule="evenodd" d="M81.0007 15.282L81 5.1535L85.0705 5.15323L85.0711 15.055C85.0713 16.8252 86.1028 17.6782 87.5947 17.6781C89.0648 17.678 90.1181 16.7822 90.1179 15.0546L90.1173 5.15289L94.1874 5.15262L94.188 15.2811C94.1884 19.9306 90.9243 21.6797 87.595 21.6799C84.2871 21.6801 81.001 19.9314 81.0007 15.282Z" fill="#B5AFAF"/>
<path fill-rule="evenodd" clip-rule="evenodd" d="M102.164 21.5263C105.311 21.5261 107.862 18.7561 107.862 15.3393C107.862 11.9225 105.31 9.15281 102.163 9.15302C100.881 9.15311 99.6971 9.6134 98.7446 10.3901L98.7445 9.31608L95 9.31633L95.0011 26.0854L98.7456 26.0852L98.7453 20.2898C99.6979 21.0663 100.882 21.5264 102.164 21.5263ZM98.7449 15.3462L98.7449 15.3335C98.7483 13.8079 99.9494 12.5721 101.431 12.572C102.915 12.5719 104.118 13.811 104.118 15.3395C104.118 16.8681 102.915 18.1073 101.431 18.1074C99.9497 18.1075 98.7485 16.8719 98.7449 15.3462Z" fill="#B5AFAF"/>
</svg>
