<svg width="117" height="27" viewBox="0 0 117 27" fill="none" xmlns="http://www.w3.org/2000/svg">
<path d="M32.6143 4.93719L38.2069 4.93682C42.9961 4.9365 46.0244 8.02612 46.0247 12.8463C46.025 17.6664 43.0127 20.7564 38.208 20.7567L32.6154 20.7571L32.6143 4.93719ZM38.0842 17.8678C41.0968 17.8676 42.7497 15.9363 42.7495 12.8619C42.7493 9.7721 41.0961 7.84107 38.0835 7.84127L35.8897 7.84142L35.8904 17.8679L38.0842 17.8678V17.8678Z" fill="#B5AFAF"/>
<path d="M54.5975 12.351C54.1649 12.0884 53.5933 11.9649 52.9908 11.9649C51.9093 11.965 51.0288 12.5367 50.7971 13.5872L50.7976 20.7247L47.615 20.725L47.6143 9.19989L50.8123 9.19968L50.8123 10.3275C51.3066 9.50863 52.249 8.93694 53.3922 8.93687C53.933 8.93683 54.4273 9.04494 54.5973 9.13763L54.5975 12.351Z" fill="#B5AFAF"/>
<path d="M61.2695 20.9872C57.917 20.9874 55.6149 18.5157 55.6147 14.9779C55.6144 11.4246 57.9162 8.9371 61.2686 8.93688C64.6211 8.93665 66.9077 11.4084 66.908 14.9771C66.9082 18.515 64.6219 20.987 61.2695 20.9872ZM61.2688 11.6559C59.6621 11.656 58.7971 13.0465 58.7972 14.9777C58.7973 16.8779 59.678 18.2837 61.2693 18.2836C62.8605 18.2835 63.741 16.893 63.7409 14.9773C63.7408 13.0462 62.8601 11.6558 61.2688 11.6559Z" fill="#B5AFAF"/>
<path d="M70.8133 24.9733L67.6153 24.9735L67.6143 9.18444L70.8123 9.18423L70.8123 10.1421C71.3221 9.52407 72.4653 8.93693 73.7012 8.93685C77.0537 8.93662 78.9541 11.7173 78.9543 14.9771C78.9546 18.2214 77.0545 20.987 73.702 20.9872C72.4661 20.9873 71.3228 20.4003 70.813 19.7823L70.8133 24.9733V24.9733ZM70.8128 16.847C71.199 17.6503 72.0488 18.191 72.9757 18.1909C74.706 18.1908 75.741 16.8003 75.7409 14.9619C75.7408 13.108 74.7056 11.7176 72.9753 11.7177C72.0175 11.7178 71.1987 12.2895 70.8125 13.062L70.8128 16.847Z" fill="#B5AFAF"/>
<path d="M83.8442 20.6994L80.6154 20.6996L80.6143 3.93726L83.8431 3.93704L83.8435 10.1321C84.3533 9.51415 85.4965 8.927 86.7325 8.92692C90.0849 8.9267 91.9699 11.6611 91.9701 14.9672C91.9703 18.2733 90.0857 20.977 86.7333 20.9773C85.4973 20.9773 84.3541 20.3903 83.8442 19.7724L83.8442 20.6994ZM83.844 16.8371C84.1994 17.6404 85.0491 18.1811 86.007 18.181C87.7373 18.1809 88.7723 16.7904 88.7721 14.952C88.772 13.0981 87.7368 11.7077 86.0065 11.7078C85.0796 11.7079 84.199 12.2796 83.8437 13.052L83.844 16.8371Z" fill="#B5AFAF"/>
<path d="M99.2695 20.987C95.917 20.9873 93.6149 18.5155 93.6147 14.9777C93.6144 11.4244 95.9162 8.93692 99.2687 8.93669C102.621 8.93647 104.908 11.4082 104.908 14.9769C104.908 18.5148 102.606 20.9868 99.2695 20.987ZM99.2688 11.6557C97.6621 11.6559 96.7971 13.0463 96.7972 14.9775C96.7973 16.8777 97.678 18.2835 99.2693 18.2834C100.861 18.2833 101.741 16.8928 101.741 14.9771C101.741 13.046 100.86 11.6556 99.2688 11.6557Z" fill="#B5AFAF"/>
<path d="M112.277 14.4983L116.48 20.4613L112.942 20.4616L110.47 16.8466L107.967 20.4619L104.615 20.4621L108.77 14.5757L104.861 8.93706L108.399 8.93682L110.624 12.2119L112.88 8.93652L116.232 8.93629L112.277 14.4983Z" fill="#B5AFAF"/>
<path d="M9.19044 0.0550441L0.863702 5.41646L6.62655 10.0663L14.9996 4.89024L9.19044 0.0550441Z" fill="#B5AFAF"/>
<path d="M0.863922 14.5976L9.19138 20.066L14.9999 15.2301L6.62615 10.0552L0.863922 14.5976Z" fill="#B5AFAF"/>
<path d="M14.8662 15.2313L20.6754 20.0664L28.9712 14.6587L23.2239 10.0552L14.8662 15.2313Z" fill="#B5AFAF"/>
<path d="M28.9713 5.46204L20.6748 0.0553962L14.8662 4.89137L23.2245 10.0663L28.9713 5.46204Z" fill="#B5AFAF"/>
<path d="M15.193 16.1144L9.36896 20.9503L6.86609 19.3284L6.86621 21.1514L15.1936 26.1409L23.5049 21.1502L23.5048 19.3272L21.0176 20.9496L15.193 16.1144Z" fill="#B5AFAF"/>
</svg>
