<svg width="83" height="25" viewBox="0 0 83 25" fill="none" xmlns="http://www.w3.org/2000/svg">
<path d="M0.704459 7.1473L4.85132 7.14702L4.85243 23.7345L0.705572 23.7347L0.704459 7.1473ZM18.2134 6.63929C15.7713 6.63945 13.7902 8.11402 13.0531 9.77282L12.9609 9.77282L12.9607 7.1004L9.04425 7.10067L9.04536 23.6881L13.1922 23.6878L13.1916 14.6108C13.1915 12.3991 14.4354 10.0953 17.0617 10.0951C19.7341 10.0949 20.195 12.5369 20.1952 14.5182L20.1958 23.7334L24.3427 23.7331L24.342 13.366C24.3417 10.0024 22.5445 6.639 18.2134 6.63929ZM53.9231 16.2668C53.9232 18.4785 52.6793 20.7824 50.053 20.7825C47.3805 20.7827 46.9196 18.3407 46.9195 16.3594L46.9189 7.1442L42.772 7.14448L42.7727 17.5116C42.7729 20.8752 44.5701 24.1925 48.9013 24.1923C51.3433 24.1921 53.3245 22.7175 54.0616 21.0587L54.1538 21.0587L54.1539 23.7311L58.0704 23.7309L58.0693 7.14345L53.9225 7.14373C53.9225 7.14373 53.9231 16.2668 53.9231 16.2668ZM62.3094 23.7306L66.4563 23.7303L66.4552 7.14289L62.3083 7.14317L62.3094 23.7306ZM26.4613 10.7856L31.115 10.7853L31.1159 23.7327L35.2627 23.7324L35.2618 10.785L39.9155 10.7847L39.9153 7.09859L26.461 7.0995L26.4613 10.7856ZM33.188 4.97954C34.5703 4.97945 35.6761 3.87355 35.676 2.49126C35.6759 1.10897 34.57 0.00321988 33.1877 0.00331267C31.8054 0.00340545 30.6996 1.10931 30.6997 2.49159C30.6998 3.87388 31.8057 4.97963 33.188 4.97954ZM69.358 7.14269L69.3582 10.8288L74.0119 10.8285L74.0128 23.7759L78.1596 23.7756L78.1588 10.7821L82.8125 10.7818L82.8122 7.09571L69.358 7.09662L69.358 7.14269ZM76.085 4.97666C77.4672 4.97657 78.573 3.87067 78.5729 2.48838C78.5728 1.10609 77.4669 0.000340388 76.0846 0.000433175C74.7023 0.000525962 73.5966 1.10643 73.5967 2.48871C73.5968 3.82492 74.7027 4.97675 76.085 4.97666Z" fill="#B5AFAF"/>
</svg>
